<svg xmlns="http://www.w3.org/2000/svg" xmlns:xlink="http://www.w3.org/1999/xlink" id="Layer_2" data-name="Layer 2" viewBox="0 0 180.73 218.85"><defs><style> .cls-1 { fill: url(#New_Gradient_4); } .cls-1, .cls-2, .cls-3, .cls-4, .cls-5, .cls-6, .cls-7, .cls-8, .cls-9 { fill-rule: evenodd; stroke-width: 0px; } .cls-3 { fill: url(#New_Gradient_7-2); } .cls-4 { fill: url(#New_Gradient_7); } .cls-5 { fill: url(#New_Gradient_11); } .cls-6 { fill: url(#New_Gradient_11-3); } .cls-7 { fill: url(#New_Gradient_5); } .cls-8 { fill: url(#New_Gradient_1); } .cls-9 { fill: url(#New_Gradient_11-2); } </style><radialGradient id="New_Gradient_11" data-name="New Gradient 11" cx="-169.18" cy="521.41" fx="-169.18" fy="521.41" r="175.84" gradientTransform="translate(-19.74 -266.81) rotate(-180) scale(.58 -.58)" gradientUnits="userSpaceOnUse"><stop offset="0" stop-color="#fff"></stop><stop offset="1" stop-color="#ccc"></stop></radialGradient><linearGradient id="New_Gradient_7" data-name="New Gradient 7" x1="-268.61" y1="552.09" x2="-182.47" y2="644.47" gradientTransform="translate(-19.74 -266.81) rotate(-180) scale(.58 -.58)" gradientUnits="userSpaceOnUse"><stop offset=".09" stop-color="#000"></stop><stop offset=".91" stop-color="#4d4d4d"></stop></linearGradient><radialGradient id="New_Gradient_11-2" data-name="New Gradient 11" cx="-171.45" fx="-171.45" r="175.84" gradientTransform="translate(201.78 -266.81) scale(.58)" xlink:href="#New_Gradient_11"></radialGradient><linearGradient id="New_Gradient_5" data-name="New Gradient 5" x1="-220.2" y1="643.16" x2="-193.52" y2="474.74" gradientTransform="translate(201.78 -266.81) scale(.58)" gradientUnits="userSpaceOnUse"><stop offset=".02" stop-color="#7f7f7f"></stop><stop offset=".98" stop-color="#ccc"></stop></linearGradient><radialGradient id="New_Gradient_1" data-name="New Gradient 1" cx="-171.45" cy="424.65" fx="-171.45" fy="424.65" r="175.85" gradientTransform="translate(201.78 429.89) scale(.58 -.58)" gradientUnits="userSpaceOnUse"><stop offset="0" stop-color="#ccc"></stop><stop offset="1" stop-color="#666"></stop></radialGradient><radialGradient id="New_Gradient_11-3" data-name="New Gradient 11" cx="-254.86" cy="522.93" fx="-254.86" fy="522.93" r="77.32" gradientTransform="translate(201.78 429.89) scale(.58 -.58)" xlink:href="#New_Gradient_11"></radialGradient><radialGradient id="New_Gradient_4" data-name="New Gradient 4" cx="-169.18" cy="424.65" fx="-169.18" fy="424.65" r="175.85" gradientTransform="translate(-19.74 429.89) rotate(-180) scale(.58)" gradientUnits="userSpaceOnUse"><stop offset="0" stop-color="#e6e6e6"></stop><stop offset="1" stop-color="#999"></stop></radialGradient><linearGradient id="New_Gradient_7-2" data-name="New Gradient 7" x1="-286.44" y1="414.94" x2="-122.73" y2="509.46" gradientTransform="translate(-19.74 429.89) rotate(-180) scale(.58)" xlink:href="#New_Gradient_7"></linearGradient></defs><g id="Layer_1-2" data-name="Layer 1"><g><path class="cls-2" d="M65.9,0h48.94l65.9,109.42-65.9,109.42h-48.94L0,109.42,65.9,0M89.94,58.62l-29.41,50.8,30.26,50.82,29.41-50.8-30.26-50.81"></path><polygon class="cls-5" points="114.14 1.22 66.59 1.22 129.99 109.42 179.3 109.42 114.14 1.22 114.14 1.22"></polygon><polygon class="cls-4" points="91.49 45.77 129.99 109.42 121.63 109.42 89.93 56.2 91.49 45.77 91.49 45.77"></polygon><polygon class="cls-9" points="66.59 1.22 114.14 1.22 50.74 109.42 1.43 109.42 66.59 1.22 66.59 1.22"></polygon><polygon class="cls-7" points="114.14 1.22 50.74 109.42 59.11 109.42 89.93 56.2 91.49 45.77 114.14 1.22 114.14 1.22"></polygon><polygon class="cls-8" points="66.59 217.62 114.14 217.62 50.74 109.42 1.43 109.42 66.59 217.62 66.59 217.62"></polygon><polygon class="cls-6" points="89.25 173.08 50.74 109.42 59.11 109.42 90.81 162.65 89.25 173.08 89.25 173.08"></polygon><polygon class="cls-1" points="114.14 217.62 66.59 217.62 129.99 109.42 179.3 109.42 114.14 217.62 114.14 217.62"></polygon><polygon class="cls-3" points="66.59 217.62 129.99 109.42 121.63 109.42 90.81 162.65 89.25 173.08 66.59 217.62 66.59 217.62"></polygon></g></g></svg>